<?xml version="1.0" encoding="UTF-8" standalone="no"?>
<!DOCTYPE svg PUBLIC "-//W3C//DTD SVG 1.1//EN"
 "http://www.w3.org/Graphics/SVG/1.1/DTD/svg11.dtd">
<!-- Generated by graphviz version 2.38.0 (20140413.2041)
 -->
<!-- Title: G Pages: 1 -->
<svg width="904pt" height="209pt"
 viewBox="0.00 0.00 903.99 208.87" xmlns="http://www.w3.org/2000/svg" xmlns:xlink="http://www.w3.org/1999/xlink">
<g id="graph0" class="graph" transform="scale(1 1) rotate(0) translate(4 204.87)">
<title>G</title>
<polygon fill="white" stroke="none" points="-4,4 -4,-204.87 899.987,-204.87 899.987,4 -4,4"/>
<!-- closing -->
<g id="node1" class="node"><title>closing</title>
<polygon fill="none" stroke="black" points="51.4728,-112.87 0.0271792,-94.8701 51.4728,-76.8701 102.918,-94.8701 51.4728,-112.87"/>
<text text-anchor="middle" x="51.4728" y="-91.1701" font-family="Times,serif" font-size="14.00">closing</text>
</g>
<!-- bottom\lmagnet -->
<g id="node11" class="node"><title>bottom\lmagnet</title>
<ellipse fill="none" stroke="black" cx="181.665" cy="-58.8701" rx="40.1111" ry="26.7407"/>
<text text-anchor="start" x="161.165" y="-62.6701" font-family="Times,serif" font-size="14.00">bottom</text>
<text text-anchor="middle" x="181.665" y="-47.6701" font-family="Times,serif" font-size="14.00">magnet</text>
</g>
<!-- closing&#45;&gt;bottom\lmagnet -->
<g id="edge13" class="edge"><title>closing&#45;&gt;bottom\lmagnet</title>
<path fill="none" stroke="black" d="M80.6051,-86.9697C96.4004,-82.5339 116.504,-76.8883 134.541,-71.8229"/>
<polygon fill="black" stroke="black" points="135.628,-75.1532 144.309,-69.0798 133.735,-68.4139 135.628,-75.1532"/>
</g>
<!-- closing\ltimeout -->
<g id="node12" class="node"><title>closing\ltimeout</title>
<ellipse fill="none" stroke="black" cx="181.665" cy="-130.87" rx="41.9398" ry="26.7407"/>
<text text-anchor="start" x="160.165" y="-134.67" font-family="Times,serif" font-size="14.00">closing</text>
<text text-anchor="middle" x="181.665" y="-119.67" font-family="Times,serif" font-size="14.00">timeout</text>
</g>
<!-- closing&#45;&gt;closing\ltimeout -->
<g id="edge15" class="edge"><title>closing&#45;&gt;closing\ltimeout</title>
<path fill="none" stroke="black" d="M80.6051,-102.77C95.8845,-107.061 115.195,-112.484 132.768,-117.419"/>
<polygon fill="black" stroke="black" points="132.295,-120.922 142.869,-120.256 134.188,-114.183 132.295,-120.922"/>
</g>
<!-- closed -->
<g id="node2" class="node"><title>closed</title>
<polygon fill="lightgrey" stroke="black" points="314.384,-117.87 260.384,-117.87 260.384,-81.8701 314.384,-81.8701 314.384,-117.87"/>
<text text-anchor="middle" x="287.384" y="-96.1701" font-family="Times,serif" font-size="14.00">closed</text>
</g>
<!-- dawn -->
<g id="node5" class="node"><title>dawn</title>
<ellipse fill="none" stroke="black" cx="382.497" cy="-58.8701" rx="29.795" ry="18"/>
<text text-anchor="middle" x="382.497" y="-55.1701" font-family="Times,serif" font-size="14.00">dawn</text>
</g>
<!-- closed&#45;&gt;dawn -->
<g id="edge1" class="edge"><title>closed&#45;&gt;dawn</title>
<path fill="none" stroke="black" d="M314.818,-88.2308C325.297,-83.6164 337.461,-78.2605 348.508,-73.3962"/>
<polygon fill="black" stroke="black" points="350.116,-76.5122 357.858,-69.279 347.295,-70.1058 350.116,-76.5122"/>
</g>
<!-- force\lopen -->
<g id="node6" class="node"><title>force\lopen</title>
<ellipse fill="none" stroke="black" cx="382.497" cy="-121.87" rx="31.2258" ry="26.7407"/>
<text text-anchor="start" x="368.497" y="-125.67" font-family="Times,serif" font-size="14.00">force</text>
<text text-anchor="middle" x="382.497" y="-110.67" font-family="Times,serif" font-size="14.00">open</text>
</g>
<!-- closed&#45;&gt;force\lopen -->
<g id="edge3" class="edge"><title>closed&#45;&gt;force\lopen</title>
<path fill="none" stroke="black" d="M314.818,-106.116C323.425,-108.149 333.169,-110.452 342.497,-112.655"/>
<polygon fill="black" stroke="black" points="341.846,-116.098 352.383,-114.991 343.455,-109.285 341.846,-116.098"/>
</g>
<!-- opening -->
<g id="node3" class="node"><title>opening</title>
<polygon fill="none" stroke="black" points="528.759,-102.87 473.46,-84.8701 528.759,-66.8701 584.058,-84.8701 528.759,-102.87"/>
<text text-anchor="middle" x="528.759" y="-81.1701" font-family="Times,serif" font-size="14.00">opening</text>
</g>
<!-- top\lmagnet -->
<g id="node7" class="node"><title>top\lmagnet</title>
<ellipse fill="none" stroke="black" cx="663.335" cy="-58.8701" rx="40.1111" ry="26.7407"/>
<text text-anchor="start" x="642.835" y="-62.6701" font-family="Times,serif" font-size="14.00">top</text>
<text text-anchor="middle" x="663.335" y="-47.6701" font-family="Times,serif" font-size="14.00">magnet</text>
</g>
<!-- opening&#45;&gt;top\lmagnet -->
<g id="edge5" class="edge"><title>opening&#45;&gt;top\lmagnet</title>
<path fill="none" stroke="black" d="M563.901,-78.1744C579.276,-75.1591 597.696,-71.5467 614.421,-68.2666"/>
<polygon fill="black" stroke="black" points="615.435,-71.6346 624.574,-66.2755 614.087,-64.7655 615.435,-71.6346"/>
</g>
<!-- opening\ltimeout -->
<g id="node8" class="node"><title>opening\ltimeout</title>
<ellipse fill="none" stroke="black" cx="663.335" cy="-130.87" rx="42.3529" ry="26.7407"/>
<text text-anchor="start" x="641.335" y="-134.67" font-family="Times,serif" font-size="14.00">opening</text>
<text text-anchor="middle" x="663.335" y="-119.67" font-family="Times,serif" font-size="14.00">timeout</text>
</g>
<!-- opening&#45;&gt;opening\ltimeout -->
<g id="edge7" class="edge"><title>opening&#45;&gt;opening\ltimeout</title>
<path fill="none" stroke="black" d="M556.269,-94.0683C573.413,-100.017 596.189,-107.919 616.241,-114.877"/>
<polygon fill="black" stroke="black" points="615.234,-118.232 625.828,-118.203 617.528,-111.619 615.234,-118.232"/>
</g>
<!-- open -->
<g id="node4" class="node"><title>open</title>
<polygon fill="lightgrey" stroke="black" points="796.761,-114.87 742.761,-114.87 742.761,-78.8701 796.761,-78.8701 796.761,-114.87"/>
<text text-anchor="middle" x="769.761" y="-93.1701" font-family="Times,serif" font-size="14.00">open</text>
</g>
<!-- dusk -->
<g id="node9" class="node"><title>dusk</title>
<ellipse fill="none" stroke="black" cx="864.874" cy="-101.87" rx="27.0966" ry="18"/>
<text text-anchor="middle" x="864.874" y="-98.1701" font-family="Times,serif" font-size="14.00">dusk</text>
</g>
<!-- open&#45;&gt;dusk -->
<g id="edge9" class="edge"><title>open&#45;&gt;dusk</title>
<path fill="none" stroke="black" d="M797.195,-98.2895C806.532,-98.7909 817.207,-99.3641 827.238,-99.9028"/>
<polygon fill="black" stroke="black" points="827.201,-103.406 837.375,-100.447 827.577,-96.4158 827.201,-103.406"/>
</g>
<!-- force\lclose -->
<g id="node10" class="node"><title>force\lclose</title>
<ellipse fill="none" stroke="black" cx="864.874" cy="-26.8701" rx="31.2258" ry="26.7407"/>
<text text-anchor="start" x="850.874" y="-30.6701" font-family="Times,serif" font-size="14.00">force</text>
<text text-anchor="middle" x="864.874" y="-15.6701" font-family="Times,serif" font-size="14.00">close</text>
</g>
<!-- open&#45;&gt;force\lclose -->
<g id="edge11" class="edge"><title>open&#45;&gt;force\lclose</title>
<path fill="none" stroke="black" d="M794.74,-78.8433C806.298,-70.1542 820.306,-59.6235 832.682,-50.3194"/>
<polygon fill="black" stroke="black" points="835.05,-52.9184 840.94,-44.1117 830.843,-47.3232 835.05,-52.9184"/>
</g>
<!-- dawn&#45;&gt;opening -->
<g id="edge2" class="edge"><title>dawn&#45;&gt;opening</title>
<path fill="none" stroke="black" d="M411.312,-63.8831C431.496,-67.5209 459.239,-72.5209 482.583,-76.7281"/>
<polygon fill="black" stroke="black" points="482.156,-80.2075 492.618,-78.5368 483.398,-73.3185 482.156,-80.2075"/>
<text text-anchor="middle" x="443.61" y="-75.6701" font-family="Times,serif" font-size="14.00">lock</text>
</g>
<!-- force\lopen&#45;&gt;opening -->
<g id="edge4" class="edge"><title>force\lopen&#45;&gt;opening</title>
<path fill="none" stroke="black" d="M412.691,-114.383C434.231,-108.858 463.802,-101.273 487.574,-95.1767"/>
<polygon fill="black" stroke="black" points="488.549,-98.54 497.366,-92.6652 486.81,-91.7594 488.549,-98.54"/>
<text text-anchor="middle" x="443.61" y="-112.67" font-family="Times,serif" font-size="14.00">lock</text>
</g>
<!-- top\lmagnet&#45;&gt;open -->
<g id="edge6" class="edge"><title>top\lmagnet&#45;&gt;open</title>
<path fill="none" stroke="black" d="M699.107,-71.5235C710.01,-75.4907 722.058,-79.875 733.025,-83.866"/>
<polygon fill="black" stroke="black" points="732.136,-87.2668 742.73,-87.3974 734.53,-80.6888 732.136,-87.2668"/>
</g>
<!-- opening\ltimeout&#45;&gt;open -->
<g id="edge8" class="edge"><title>opening\ltimeout&#45;&gt;open</title>
<path fill="none" stroke="black" d="M701.446,-118.787C711.646,-115.466 722.688,-111.871 732.821,-108.572"/>
<polygon fill="black" stroke="black" points="734.162,-111.816 742.587,-105.392 731.995,-105.16 734.162,-111.816"/>
</g>
<!-- dusk&#45;&gt;closing -->
<g id="edge10" class="edge"><title>dusk&#45;&gt;closing</title>
<path fill="none" stroke="black" d="M854.964,-118.869C840.731,-143.414 810.385,-185.87 770.761,-185.87 180.665,-185.87 180.665,-185.87 180.665,-185.87 133.38,-185.87 91.3837,-144.192 69.1745,-117.248"/>
<polygon fill="black" stroke="black" points="71.6447,-114.731 62.6774,-109.089 66.1688,-119.092 71.6447,-114.731"/>
<text text-anchor="middle" x="443.61" y="-189.67" font-family="Times,serif" font-size="14.00">lock</text>
</g>
<!-- force\lclose&#45;&gt;closing -->
<g id="edge12" class="edge"><title>force\lclose&#45;&gt;closing</title>
<path fill="none" stroke="black" d="M836.199,-16.3125C817.905,-10.2662 793.241,-3.87006 770.761,-3.87006 180.665,-3.87006 180.665,-3.87006 180.665,-3.87006 133.38,-3.87006 91.3837,-45.5482 69.1745,-72.4924"/>
<polygon fill="black" stroke="black" points="66.1688,-70.6483 62.6774,-80.6513 71.6447,-75.0089 66.1688,-70.6483"/>
<text text-anchor="middle" x="443.61" y="-7.67006" font-family="Times,serif" font-size="14.00">lock</text>
</g>
<!-- bottom\lmagnet&#45;&gt;closed -->
<g id="edge14" class="edge"><title>bottom\lmagnet&#45;&gt;closed</title>
<path fill="none" stroke="black" d="M216.626,-72.295C227.593,-76.6301 239.777,-81.4464 250.854,-85.825"/>
<polygon fill="black" stroke="black" points="249.658,-89.1159 260.245,-89.5373 252.232,-82.6061 249.658,-89.1159"/>
</g>
<!-- closing\ltimeout&#45;&gt;closed -->
<g id="edge16" class="edge"><title>closing\ltimeout&#45;&gt;closed</title>
<path fill="none" stroke="black" d="M219.817,-119.766C229.844,-116.769 240.671,-113.533 250.62,-110.559"/>
<polygon fill="black" stroke="black" points="251.636,-113.909 260.215,-107.692 249.631,-107.202 251.636,-113.909"/>
</g>
</g>
</svg>
