<?xml version="1.0" encoding="UTF-8" standalone="no"?>
<svg
   xmlns:osb="http://www.openswatchbook.org/uri/2009/osb"
   xmlns:dc="http://purl.org/dc/elements/1.1/"
   xmlns:cc="http://creativecommons.org/ns#"
   xmlns:rdf="http://www.w3.org/1999/02/22-rdf-syntax-ns#"
   xmlns:svg="http://www.w3.org/2000/svg"
   xmlns="http://www.w3.org/2000/svg"
   xmlns:xlink="http://www.w3.org/1999/xlink"
   version="1.1"
   id="svg2"
   viewBox="0 0 695.93123 469.56051"
   height="5.217339in"
   width="7.7325692in">
  <defs
     id="defs4">
    <marker
       orient="auto"
       refY="0"
       refX="0"
       id="marker6120"
       style="overflow:visible">
      <path
         id="path6122"
         d="M 0,0 5,-5 -12.5,0 5,5 0,0 Z"
         style="fill:#000000;fill-opacity:1;fill-rule:evenodd;stroke:#000000;stroke-width:1pt;stroke-opacity:1"
         transform="matrix(-0.8,0,0,-0.8,-10,0)" />
    </marker>
    <linearGradient
       osb:paint="solid"
       id="linearGradient5974">
      <stop
         id="stop5976"
         offset="0"
         style="stop-color:#262b3a;stop-opacity:1;" />
    </linearGradient>
    <linearGradient
       id="linearGradient5948">
      <stop
         id="stop5950"
         offset="0"
         style="stop-color:#806446;stop-opacity:1;" />
      <stop
         id="stop5952"
         offset="1"
         style="stop-color:#806446;stop-opacity:0;" />
    </linearGradient>
    <linearGradient
       osb:paint="solid"
       id="linearGradient5938">
      <stop
         id="stop5940"
         offset="0"
         style="stop-color:#000000;stop-opacity:1;" />
    </linearGradient>
    <marker
       style="overflow:visible"
       id="Arrow1Lend"
       refX="0"
       refY="0"
       orient="auto">
      <path
         transform="matrix(-0.8,0,0,-0.8,-10,0)"
         style="fill:#000000;fill-opacity:1;fill-rule:evenodd;stroke:#000000;stroke-width:1pt;stroke-opacity:1"
         d="M 0,0 5,-5 -12.5,0 5,5 0,0 Z"
         id="path4155" />
    </marker>
    <linearGradient
       gradientUnits="userSpaceOnUse"
       y2="231.96829"
       x2="443.54156"
       y1="231.96829"
       x1="275.62646"
       id="linearGradient5954"
       xlink:href="#linearGradient5948" />
  </defs>
  <metadata
     id="metadata7">
    <rdf:RDF>
      <cc:Work
         rdf:about="">
        <dc:format>image/svg+xml</dc:format>
        <dc:type
           rdf:resource="http://purl.org/dc/dcmitype/StillImage" />
        <dc:title></dc:title>
      </cc:Work>
    </rdf:RDF>
  </metadata>
  <g
     transform="translate(-273.21165,-309.59083)"
     id="layer1">
    <text
       id="text3342"
       y="523.16125"
       x="302.21616"
       style="font-style:normal;font-weight:normal;font-size:40px;line-height:125%;font-family:Sans;letter-spacing:0px;word-spacing:0px;fill:#000000;fill-opacity:1;stroke:none;stroke-width:1px;stroke-linecap:butt;stroke-linejoin:miter;stroke-opacity:1"
       xml:space="preserve"><tspan
         y="523.16125"
         x="302.21616"
         id="tspan3344">FEED</tspan></text>
    <path
       id="path4446"
       d="m 505.54185,435.47589 c 8.95729,-9.38122 13.88255,-12.70874 24.24366,-16.16244 0.72025,-0.24009 48.48732,-44.47087 48.48732,-36.3655 0,18.43359 37.55777,63.04348 6.06092,78.7919 -1.55579,0.7779 -57.38018,-12.52764 -60.60915,-14.14213 -9.47915,-4.73958 -5.08895,-12.12183 -18.18275,-12.12183 z"
       style="fill:none;fill-rule:evenodd;stroke:#000000;stroke-width:1px;stroke-linecap:butt;stroke-linejoin:miter;stroke-opacity:1" />
    <path
       id="path4454"
       d="m 507.56216,435.47589 84.85281,-14.14214"
       style="fill:none;fill-rule:evenodd;stroke:#000000;stroke-width:1px;stroke-linecap:butt;stroke-linejoin:miter;stroke-opacity:1" />
    <path
       id="path4456"
       d="m 582.31344,338.50124 c -8.10524,-0.32864 -14.14213,3.02116 -14.14213,12.12183 0,7.09931 -5.22736,16.996 0,22.22336 6.10565,6.10565 48.55681,4.1101 36.36549,-8.08122 -8.94804,-8.94804 -12.96121,-13.91444 -22.22336,-26.26397 z"
       style="fill:none;fill-rule:evenodd;stroke:#000000;stroke-width:1px;stroke-linecap:butt;stroke-linejoin:miter;stroke-opacity:1" />
    <path
       id="path4458"
       d="m 580.29314,358.70429 -2.02031,-2.0203"
       style="fill:none;fill-rule:evenodd;stroke:#000000;stroke-width:4;stroke-linecap:butt;stroke-linejoin:miter;stroke-miterlimit:4;stroke-dasharray:none;stroke-opacity:1" />
    <path
       id="path4464"
       d="m 567.63931,387.88248 c 1.58511,-4.28643 3.09212,-8.71676 4.63818,-13.07515"
       style="fill:none;fill-rule:evenodd;stroke:#000000;stroke-width:0.86191618px;stroke-linecap:butt;stroke-linejoin:miter;stroke-opacity:1" />
    <path
       id="path4466"
       d="m 582.436,338.44523 c 13.82417,-6.35278 21.03299,-26.20795 36.24294,-26.20795 7.23492,0 -10.10153,12.75139 -10.10153,16.16244 0,6.8013 32.20923,-20.3187 34.34519,-18.18275 0.54741,0.54742 -14.03882,20.15139 -10.10153,18.18275 4.5683,-2.28415 30.57092,-18.18275 32.32488,-18.18275 2.99402,0 -21.12508,24.24366 -18.18274,24.24366 4.98439,0 24.7573,-19.68941 28.28427,-16.16244 2.69773,2.69773 -22.28657,28.4107 -24.24366,32.32488 -2.00241,4.00482 2.06151,46.50823 6.06091,50.50763 3.62575,3.62575 14.45143,8.39051 18.18275,12.12183 1.65379,1.65379 -3.67618,29.01314 0,36.36549"
       style="fill:none;fill-rule:evenodd;stroke:#000000;stroke-width:1px;stroke-linecap:butt;stroke-linejoin:miter;stroke-opacity:1" />
    <path
       id="path4468"
       d="m 590.61874,456.98495 c -34.81577,46.72315 -24.02221,64.23481 3.81653,119.91229 2.55991,5.11982 12.06434,12.03559 16.16245,18.18275 7.54044,11.31066 13.47047,25.81619 26.26396,34.34519 14.87149,9.91432 32.92467,16.46233 48.48732,24.24366 14.10016,7.05008 40.95461,0 56.56855,0 17.84566,0 36.21339,4.11665 52.52793,-4.04061 26.70858,-13.35429 39.34013,-72.61936 54.54824,-103.03556 4.51081,-9.02163 -5.39232,-28.95287 2.0203,-36.36549 3.50538,-3.50539 41.22576,-57.7692 40.4061,-58.58885 -3.07329,-3.07329 -29.90438,13.74194 -32.32488,16.16244 -0.95238,0.95238 -2.83593,-0.60234 -4.04061,0 -9.54695,4.77348 23.85174,-65.4336 22.22336,-68.69037 -9.93309,-19.86618 -53.88199,46.46701 -54.54824,46.46701 -5.12983,0 19.8326,-52.89838 10.10153,-62.62946 -14.56142,-14.56141 -53.32063,52.52794 -54.54824,52.52794 -13.26194,0 36.32571,-65.64003 6.06091,-50.50763 -11.22923,5.61461 -24.4558,32.74916 -30.30457,44.44671 -2.1038,4.20759 -0.63108,12.75291 -4.04061,16.16244 -12.53966,12.53966 -67.48591,7.43871 -74.81782,3.77275"
       style="fill:none;fill-rule:evenodd;stroke:#000000;stroke-width:1px;stroke-linecap:butt;stroke-linejoin:miter;stroke-opacity:1" />
    <path
       id="path4470"
       d="m 751.04917,446.7714 c -30.30712,7.82455 81.80732,-10.29797 55.51814,2.84662 -6.28783,3.14391 -22.93687,16.75572 -18.18275,26.26397 0.96141,1.92281 36.84092,3.56519 30.30458,10.10152 -10.69036,10.69036 -39.02638,12.76242 -50.50763,24.24367 -4.86488,4.86488 41.84461,11.54003 44.44671,14.14213 0.75739,0.75739 -21.25313,7.08438 -24.24366,8.08122 -10.56168,3.52056 -24.24366,10.47997 -24.24366,10.10153 0,-0.47141 3.16515,2.0203 4.04061,2.0203 5.59699,0 9.53901,-0.28126 14.14214,2.02031 2.51278,1.25639 16.16244,1.4785 16.16244,4.04061 0,1.57314 -12.61863,1.25855 -14.14214,2.0203 -4.97774,2.48887 -10.42276,4.14769 -16.16244,6.06092 -24.16462,8.05487 -30.09429,0.10514 -46.46701,-8.08122 -5.83958,-2.91979 -14.47709,-1.17763 -20.20306,-4.04061 -6.96655,-3.48328 -12.26018,-12.26019 -16.16244,-16.16244 -20.25856,-20.25857 -27.83588,-25.14043 -12.12183,-56.56855 5.10262,-10.20523 0.68257,-21.56818 4.04061,-28.28427"
       style="fill:none;fill-rule:evenodd;stroke:#000000;stroke-width:1px;stroke-linecap:butt;stroke-linejoin:miter;stroke-opacity:1" />
    <path
       id="path4472"
       d="m 679.28809,627.40487 c -9.28328,20.37452 -56.56854,79.76794 -56.56854,96.97464 -4.17298,-9.59851 -49.48538,-34.34518 -34.34519,-34.34518"
       style="fill:none;fill-rule:evenodd;stroke:#000000;stroke-width:1px;stroke-linecap:butt;stroke-linejoin:miter;stroke-opacity:1" />
    <path
       id="path4474"
       d="m 578.27283,724.37951 c 5.31803,-2.65901 30.97251,-2.30471 46.46702,-4.04061 -14.18922,13.65553 -31.12255,29.92023 -36.36549,40.40611"
       style="fill:none;fill-rule:evenodd;stroke:#000000;stroke-width:1px;stroke-linecap:butt;stroke-linejoin:miter;stroke-opacity:1" />
    <path
       id="path4476"
       d="m 723.7348,637.5064 c -1.97324,26.27101 14.39039,90.41722 6.06092,107.07617"
       style="fill:none;fill-rule:evenodd;stroke:#000000;stroke-width:1px;stroke-linecap:butt;stroke-linejoin:miter;stroke-opacity:1" />
    <path
       id="path4478"
       d="m 679.28809,718.3186 c 0,-1.23288 -0.78719,-7.29403 0,-8.08122 3.5946,-3.59461 38.30552,31.5583 46.46702,28.28427 -18.91676,-4.94679 -31.35893,16.16244 -46.46702,16.16244"
       style="fill:none;fill-rule:evenodd;stroke:#000000;stroke-width:1px;stroke-linecap:butt;stroke-linejoin:miter;stroke-opacity:1" />
    <path
       id="path4480"
       d="m 733.83633,738.52165 c -17.60705,11.79463 -34.32354,32.28158 -38.3858,40.4061"
       style="fill:none;fill-rule:evenodd;stroke:#000000;stroke-width:1px;stroke-linecap:butt;stroke-linejoin:miter;stroke-opacity:1" />
    <path
       id="path4488"
       d="m 317.14286,423.79077 c 26.91535,-6.52932 -7.57443,-55.28271 -4.28572,-58.57143 0.858,-0.85799 14.78203,15.96244 17.14286,17.14286 5.86829,2.93414 0.98328,-13.84042 2.85714,-15.71429 2.62744,-2.62744 0.48862,11.42857 14.28572,11.42857 6.99516,0 14.51895,-8.80467 18.57143,-12.85714 2.16148,-2.16148 4.81761,13.30548 14.28571,8.57143 2.37828,-1.18914 25.71429,-12.71004 25.71429,-5.71429 0,6.99828 -34.95713,32.9429 -28.57143,45.71429 2.92706,5.85413 17.70234,3.13689 22.85714,5.71429 11.10003,5.55001 17.12305,9.98019 24.28571,17.14285 5.6341,5.6341 -3.91606,36.03392 -5.71428,41.42858 -3.34704,10.04113 5.49417,20.88044 2.85714,31.42857 -2.66768,10.67071 -5.19783,48.69222 -1.42857,60 5.69996,17.09987 2.12872,37.11458 10,52.85714 2.08536,4.17072 18.99732,21.00268 14.28571,25.71429 -9.27115,9.27115 -53.1781,-7.03587 -65.71428,-2.85715 -8.38519,2.79507 -18.65435,2.88479 -27.14286,5.71429 -14.90813,4.96937 -34.70832,3.06845 -48.57143,10 -6.45764,3.22882 -17.76888,11.42857 -22.85714,11.42857 -1.67775,0 -4.78031,-8.13204 -5.71429,-10 -3.22448,-6.44898 8.62201,-40.15172 11.42858,-48.57143 3.50937,-10.52812 -2.0273,-23.9181 1.42857,-34.28571 3.31465,-9.94396 7.14285,-23.91887 7.14285,-34.28572 0,-7.87541 -5.84991,-18.16453 -2.85714,-27.14285 3.43924,-10.31771 10,-23.70409 10,-35.71429 0,-2.96054 -8.20036,-30.49676 -2.59301,-44.76859 5.30857,-13.51134 24.62262,-13.87463 18.52023,-13.87463"
       style="fill:none;fill-rule:evenodd;stroke:#000000;stroke-width:1px;stroke-linecap:butt;stroke-linejoin:miter;stroke-opacity:1" />
    <path
       transform="translate(0,287.3622)"
       id="path4492"
       d="m 277.44373,378.45801 c -3.34457,-7.41691 -2.32589,-14.96803 5.18276,-38.41809 5.43203,-16.96462 5.73216,-18.7888 4.91931,-29.89945 -0.74692,-10.20945 -0.34188,-13.63876 2.95282,-25 4.045,-13.94855 4.82112,-26.33647 2.74923,-43.88173 -0.98693,-8.35757 -0.66048,-10.45812 3.26601,-21.01521 5.88398,-15.8202 6.62882,-22.97062 3.89136,-37.35689 -5.47261,-28.76042 -1.99346,-38.14441 16.71526,-45.08458 3.76477,-1.39658 7.86911,-4.10215 9.12074,-6.01239 3.61178,-5.51227 1.8429,-19.1528 -4.35497,-33.582953 -2.85024,-6.63604 -5.18225,-12.65777 -5.18225,-13.381622 0,-0.723852 3.15277,1.789269 7.00616,5.584713 3.85339,3.795443 7.71053,6.46548 8.57143,5.933416 0.8609,-0.532066 1.56527,-3.47166 1.56527,-6.532432 l 0,-5.565041 3.50649,3.506494 c 5.59975,5.599746 13.11441,4.845491 22.04348,-2.212527 l 7.2351,-5.719021 2.35419,3.592942 c 3.56743,5.444587 7.4052,5.598747 19.43748,0.780787 11.54822,-4.624133 15.42326,-5.333094 15.42326,-2.82178 0,0.848364 -5.18858,7.437649 -11.53019,14.642857 -22.20851,25.232887 -22.71203,33.584447 -2.1602,35.829437 9.94646,1.08651 19.77182,6.03583 28.95,14.58296 l 6.46938,6.02456 -0.94919,7.61742 c -0.52206,4.18959 -2.62439,13.68786 -4.67183,21.10728 -3.71598,13.46574 -3.7184,13.51042 -1.34818,25 1.9624,9.51273 2.09595,13.12155 0.76961,20.79586 -2.58517,14.9579 -2.35626,49.03079 0.40787,60.71429 1.30122,5.5 2.80066,14.96251 3.33209,21.02781 1.51763,17.32096 3.93647,24.19083 12.78218,36.3034 4.43283,6.06995 7.86712,12.04643 7.63176,13.28109 -0.90491,4.74711 -9.70551,5.00057 -34.50626,0.99379 l -23.68573,-3.82663 -18.24566,3.75878 c -24.53659,5.05479 -28.78939,5.84692 -45.25129,8.42857 -11.95896,1.87549 -16.18679,3.32093 -27.31967,9.34032 -7.24415,3.91678 -13.47612,7.12144 -13.84883,7.12144 -0.3727,0 -1.82575,-2.54604 -3.22899,-5.65787 z m 33.54599,-148.62784 0,-7.14286 5.71428,0 c 4.12699,0 5.71429,-0.59524 5.71429,-2.14286 0,-1.54762 -1.5873,-2.14285 -5.71429,-2.14285 -5.10698,0 -5.71428,-0.37084 -5.71428,-3.48929 0,-3.08251 0.70637,-3.5405 6.0591,-3.92857 4.41988,-0.32044 6.1874,-1.11564 6.53332,-2.93929 0.41266,-2.17549 -0.74467,-2.5 -8.91625,-2.5 l -9.39046,0 0,15.71429 c 0,14.7619 0.17316,15.71428 2.85714,15.71428 2.47619,0 2.85715,-0.95238 2.85715,-7.14285 z m 37.14285,4.28571 c 0,-2.47618 -0.95238,-2.85714 -7.14285,-2.85714 -6.98413,0 -7.14286,-0.0953 -7.14286,-4.28572 0,-4.19047 0.15873,-4.28571 7.14286,-4.28571 5.39682,0 7.14285,-0.52381 7.14285,-2.14286 0,-1.61904 -1.74603,-2.14285 -7.14285,-2.14285 -6.66667,0 -7.14286,-0.2381 -7.14286,-3.57143 0,-3.33334 0.47619,-3.57143 7.14286,-3.57143 6.19047,0 7.14285,-0.38095 7.14285,-2.85714 0,-2.58504 -0.95238,-2.85715 -10,-2.85715 l -10,0 0,15.71429 0,15.71428 10,0 c 9.04762,0 10,-0.27211 10,-2.85714 z m 25.71429,0 c 0,-2.47618 -0.95238,-2.85714 -7.14286,-2.85714 -6.98412,0 -7.14285,-0.0953 -7.14285,-4.28572 0,-4.12698 0.23809,-4.28571 6.42857,-4.28571 4.7619,0 6.42857,-0.55556 6.42857,-2.14286 0,-1.5873 -1.66667,-2.14285 -6.42857,-2.14285 -5.86635,0 -6.42857,-0.3055 -6.42857,-3.49316 0,-3.15273 0.66004,-3.53559 6.77286,-3.92857 5.1033,-0.32808 6.88989,-1.05169 7.24761,-2.93542 0.41588,-2.19007 -0.77797,-2.5 -9.63001,-2.5 l -10.10475,0 0,15.71429 0,15.71428 10,0 c 9.04762,0 10,-0.27211 10,-2.85714 z m 25.17442,-0.6972 c 7.20375,-4.72008 7.9853,-16.79243 1.50655,-23.27118 -2.58821,-2.58821 -5.51895,-3.59912 -12.18718,-4.20377 l -8.7795,-0.7961 0,16.11255 0,16.11257 7.96779,-0.82235 c 4.38229,-0.45229 9.55384,-1.86156 11.49234,-3.13172 z"
       style="fill:#806446;fill-opacity:0;fill-rule:nonzero;stroke-width:4;stroke-linecap:butt;stroke-miterlimit:4;stroke-dasharray:none" />
    <path
       transform="translate(0,287.3622)"
       id="path5946"
       d="m 277.44373,378.45801 c -3.34457,-7.41691 -2.32589,-14.96803 5.18276,-38.41809 5.43203,-16.96462 5.73216,-18.7888 4.91931,-29.89945 -0.74692,-10.20945 -0.34188,-13.63876 2.95282,-25 4.045,-13.94855 4.82112,-26.33647 2.74923,-43.88173 -0.98693,-8.35757 -0.66048,-10.45812 3.26601,-21.01521 5.88398,-15.8202 6.62882,-22.97062 3.89136,-37.35689 -5.47261,-28.76042 -1.99346,-38.14441 16.71526,-45.08458 3.76477,-1.39658 7.86911,-4.10215 9.12074,-6.01239 3.61178,-5.51227 1.8429,-19.1528 -4.35497,-33.582953 -2.85024,-6.63604 -5.18225,-12.65777 -5.18225,-13.381622 0,-0.723852 3.15277,1.789269 7.00616,5.584713 3.85339,3.795443 7.71053,6.46548 8.57143,5.933416 0.8609,-0.532066 1.56527,-3.47166 1.56527,-6.532432 l 0,-5.565041 3.50649,3.506494 c 5.59975,5.599746 13.11441,4.845491 22.04348,-2.212527 l 7.2351,-5.719021 2.35419,3.592942 c 3.56743,5.444587 7.4052,5.598747 19.43748,0.780787 11.54822,-4.624133 15.42326,-5.333094 15.42326,-2.82178 0,0.848364 -5.18858,7.437649 -11.53019,14.642857 -22.20851,25.232887 -22.71203,33.584447 -2.1602,35.829437 9.94646,1.08651 19.77182,6.03583 28.95,14.58296 l 6.46938,6.02456 -0.94919,7.61742 c -0.52206,4.18959 -2.62439,13.68786 -4.67183,21.10728 -3.71598,13.46574 -3.7184,13.51042 -1.34818,25 1.9624,9.51273 2.09595,13.12155 0.76961,20.79586 -2.58517,14.9579 -2.35626,49.03079 0.40787,60.71429 1.30122,5.5 2.80066,14.96251 3.33209,21.02781 1.51763,17.32096 3.93647,24.19083 12.78218,36.3034 4.43283,6.06995 7.86712,12.04643 7.63176,13.28109 -0.90491,4.74711 -9.70551,5.00057 -34.50626,0.99379 l -23.68573,-3.82663 -18.24566,3.75878 c -24.53659,5.05479 -28.78939,5.84692 -45.25129,8.42857 -11.95896,1.87549 -16.18679,3.32093 -27.31967,9.34032 -7.24415,3.91678 -13.47612,7.12144 -13.84883,7.12144 -0.3727,0 -1.82575,-2.54604 -3.22899,-5.65787 z m 33.54599,-148.62784 0,-7.14286 5.71428,0 c 4.12699,0 5.71429,-0.59524 5.71429,-2.14286 0,-1.54762 -1.5873,-2.14285 -5.71429,-2.14285 -5.10698,0 -5.71428,-0.37084 -5.71428,-3.48929 0,-3.08251 0.70637,-3.5405 6.0591,-3.92857 4.41988,-0.32044 6.1874,-1.11564 6.53332,-2.93929 0.41266,-2.17549 -0.74467,-2.5 -8.91625,-2.5 l -9.39046,0 0,15.71429 c 0,14.7619 0.17316,15.71428 2.85714,15.71428 2.47619,0 2.85715,-0.95238 2.85715,-7.14285 z m 37.14285,4.28571 c 0,-2.47618 -0.95238,-2.85714 -7.14285,-2.85714 -6.98413,0 -7.14286,-0.0953 -7.14286,-4.28572 0,-4.19047 0.15873,-4.28571 7.14286,-4.28571 5.39682,0 7.14285,-0.52381 7.14285,-2.14286 0,-1.61904 -1.74603,-2.14285 -7.14285,-2.14285 -6.66667,0 -7.14286,-0.2381 -7.14286,-3.57143 0,-3.33334 0.47619,-3.57143 7.14286,-3.57143 6.19047,0 7.14285,-0.38095 7.14285,-2.85714 0,-2.58504 -0.95238,-2.85715 -10,-2.85715 l -10,0 0,15.71429 0,15.71428 10,0 c 9.04762,0 10,-0.27211 10,-2.85714 z m 25.71429,0 c 0,-2.47618 -0.95238,-2.85714 -7.14286,-2.85714 -6.98412,0 -7.14285,-0.0953 -7.14285,-4.28572 0,-4.12698 0.23809,-4.28571 6.42857,-4.28571 4.7619,0 6.42857,-0.55556 6.42857,-2.14286 0,-1.5873 -1.66667,-2.14285 -6.42857,-2.14285 -5.86635,0 -6.42857,-0.3055 -6.42857,-3.49316 0,-3.15273 0.66004,-3.53559 6.77286,-3.92857 5.1033,-0.32808 6.88989,-1.05169 7.24761,-2.93542 0.41588,-2.19007 -0.77797,-2.5 -9.63001,-2.5 l -10.10475,0 0,15.71429 0,15.71428 10,0 c 9.04762,0 10,-0.27211 10,-2.85714 z m 25.17442,-0.6972 c 7.20375,-4.72008 7.9853,-16.79243 1.50655,-23.27118 -2.58821,-2.58821 -5.51895,-3.59912 -12.18718,-4.20377 l -8.7795,-0.7961 0,16.11255 0,16.11257 7.96779,-0.82235 c 4.38229,-0.45229 9.55384,-1.86156 11.49234,-3.13172 z"
       style="fill:url(#linearGradient5954);fill-opacity:1;fill-rule:nonzero;stroke-width:4;stroke-linecap:butt;stroke-miterlimit:4;stroke-dasharray:none" />
    <path
       id="path5964"
       d="m 691.26627,654.42051 c -3.3798,-0.82869 -18.60298,-7.79676 -20.38158,-9.3292 -0.20987,-0.18083 1.87349,-4.0737 4.6297,-8.65083 2.7562,-4.57713 4.62037,-8.69113 4.1426,-9.14223 -0.47777,-0.45108 -1.59685,0.37146 -2.48684,1.82787 -0.88999,1.45643 -3.38885,5.50107 -5.55301,8.98809 l -3.93485,6.34003 -14.63658,-7.51175 c -18.3506,-9.41784 -24.52673,-15.09728 -35.23022,-32.39701 -4.68976,-7.57993 -11.19452,-16.35311 -14.45501,-19.49597 -6.73895,-6.49583 -23.38547,-38.14733 -29.2483,-55.6124 -7.98704,-23.79297 -2.84726,-45.47006 16.5696,-69.88252 9.53152,-11.9838 9.32269,-22.44393 -0.94089,-47.12908 -3.64683,-8.77109 -7.64905,-19.37851 -8.89382,-23.57205 -2.13646,-7.19761 -2.48453,-7.58035 -6.21517,-6.83422 -3.47687,0.69537 -3.8256,0.44882 -2.90089,-2.05092 0.93435,-2.52579 2.5691,-2.8831 14.72072,-3.21755 10.08697,-0.27762 14.6621,-1.02651 17.45637,-2.85739 4.56728,-2.99259 4.84315,-6.73461 0.76734,-10.40817 -1.66067,-1.49678 -6.7998,-7.41563 -11.42028,-13.15301 l -8.40089,-10.43159 11.51141,-11.46509 c 9.96778,-9.92767 20.34445,-16.98976 22.21516,-15.11906 0.31745,0.31745 -2.00203,3.50733 -5.15441,7.08862 -11.07653,12.58361 -5.53727,13.06371 12.68349,1.09932 7.15742,-4.69981 13.01349,-8.25785 13.01349,-7.90676 0,0.3511 -1.90839,3.64758 -4.24087,7.32552 -2.33248,3.67794 -3.89005,7.25479 -3.46127,7.94857 0.72489,1.1729 9.42982,-3.21361 22.47997,-11.32789 3.02066,-1.87817 5.74101,-3.16597 6.04521,-2.86176 0.30421,0.3042 -2.64939,4.34064 -6.56354,8.96986 -6.55042,7.7471 -8.72377,12.10351 -6.04521,12.11742 0.58928,0.003 6.38054,-3.63425 12.86946,-8.08291 6.48892,-4.44867 12.14468,-7.74184 12.56836,-7.31816 0.42368,0.42368 -3.27829,5.71112 -8.2266,11.74986 -4.94832,6.03874 -10.56817,12.92011 -12.48856,15.29194 l -3.49161,4.31241 1.71977,18.09208 c 2.84061,29.88335 3.19085,30.81108 14.32836,37.95336 l 9.50653,6.09636 -0.0264,27.73546 -0.0264,27.73546 -4.6327,10.27655 c -9.53974,21.16165 -7.92267,27.60905 12.47119,49.72345 15.56183,16.87472 18.74315,19.10713 28.85832,20.25065 4.83124,0.54617 11.77603,3.00235 18.88266,6.67828 15.9742,8.26272 23.83355,8.58292 43.75912,1.78284 8.25,-2.81551 17.41072,-5.12388 20.35715,-5.12972 6.45583,-0.0129 7.52124,-3.7892 1.42857,-5.06368 -2.16072,-0.45198 -7.91783,-1.74994 -12.7936,-2.88435 -4.87576,-1.13443 -10.34004,-2.09962 -12.14286,-2.14489 -4.61337,-0.11586 8.71007,-6.00214 25.97036,-11.47374 14.8707,-4.71409 18.34617,-6.32579 16.85547,-7.81649 -0.52606,-0.52605 -10.13811,-3.1524 -21.36014,-5.83633 -11.22202,-2.68392 -20.94506,-5.42125 -21.60675,-6.08294 -1.86084,-1.86084 6.82808,-6.44867 23.2918,-12.29826 17.82185,-6.33212 21.26012,-7.9917 24.90789,-12.02244 2.50039,-2.7629 2.54966,-3.25648 0.527,-5.27916 -1.28096,-1.28094 -8.0853,-3.18795 -15.97594,-4.47747 -13.64097,-2.22925 -13.74466,-2.27698 -13.74466,-6.32603 0,-3.03267 1.94073,-5.997 7.56137,-11.54947 4.15876,-4.10831 9.3578,-8.66704 11.55343,-10.13052 8.99129,-5.99308 -3.36356,-7.16999 -38.88814,-3.70446 -8.91106,0.8693 -16.46293,1.31954 -16.78193,1.00053 -2.03704,-2.03704 3.32487,-19.048 9.56626,-30.34949 12.29955,-22.27122 21.16695,-32.1219 28.9296,-32.13752 3.68198,-0.007 2.54501,3.94962 -7.16993,24.95386 -8.72576,18.86556 -10.55469,25.58874 -7.30066,26.83742 1.41557,0.54321 5.69357,-4.42324 13.6615,-15.86002 14.6363,-21.00822 23.14741,-30.68926 31.05434,-35.32303 5.21755,-3.05768 6.74013,-3.38149 9.345,-1.9874 2.8724,1.53726 3.05369,2.45131 2.35555,11.87678 -0.4387,5.92293 -3.2819,18.5122 -6.77008,29.97692 -3.62072,11.90044 -5.49547,20.28384 -4.71132,21.06798 0.78415,0.78415 5.31972,-3.95448 11.3982,-11.90844 13.04372,-17.06836 22.66747,-27.70598 29.62484,-32.74587 5.60824,-4.06258 11.37794,-5.23325 12.98408,-2.63446 0.47655,0.77106 -4.25794,14.43178 -10.52107,30.35714 -6.26314,15.92537 -11.8295,31.36593 -12.3697,34.31235 -0.93941,5.12393 -0.8121,5.35715 2.92447,5.35715 2.14866,0 8.48806,-2.74692 14.08756,-6.10425 10.98914,-6.58884 18.09136,-10.03293 18.93979,-9.18451 0.59595,0.59596 -21.40909,33.12071 -33.47157,49.47294 l -7.82866,10.61276 0.8841,15.10153 c 0.7828,13.37133 0.54664,15.83806 -2.06123,21.5301 -1.61993,3.53571 -7.09241,17.35714 -12.16109,30.71428 -16.38212,43.17073 -27.01452,60.82133 -41.10247,68.23326 -4.94047,2.59926 -8.71587,3.15857 -23.73224,3.51582 -9.82143,0.23367 -23.80407,0.57857 -31.07253,0.76645 l -13.2154,0.34162 10e-4,-8.21429 c 7e-4,-5.19228 -0.59746,-8.21428 -1.62589,-8.21428 -1.11861,0 -1.38926,2.62168 -0.86617,8.39042 l 0.76083,8.39043 -7.34813,0.88287 c -9.19562,1.10485 -18.91333,0.93202 -24.49097,-0.43558 z"
       style="fill:#262b3a;fill-opacity:0;fill-rule:nonzero;stroke:none;stroke-width:4;stroke-linecap:butt;stroke-miterlimit:4;stroke-dasharray:none;stroke-opacity:1" />
    <path
       id="path5980"
       d="m 742.69484,559.49307 c -3.14286,-1.00468 -9.29588,-3.85847 -13.67339,-6.34176 -4.46571,-2.53333 -11.04948,-4.88384 -15,-5.35525 -3.87249,-0.46209 -8.71071,-1.4672 -10.75159,-2.23357 -4.39067,-1.64874 -31.26165,-29.98169 -34.65133,-36.53661 -3.53909,-6.84384 -2.87509,-13.74393 2.65192,-27.55824 2.75229,-6.87915 5.41274,-16.4165 5.9121,-21.19411 l 0.90793,-8.68656 6.58789,1.01698 c 10.79689,1.66674 50.34465,1.16171 55.87361,-0.7135 5.77355,-1.95817 55.48138,-6.54823 63.55712,-5.86892 l 5.42748,0.45655 -7.51278,4.8508 c -7.96566,5.14322 -15.75753,15.57336 -15.75753,21.09291 0,4.246 2.65852,5.4617 16.57339,7.57873 13.61485,2.07137 16.14215,3.20552 13.70011,6.14801 -2.00307,2.41356 -7.54286,4.87415 -26.70207,11.86017 -7.85715,2.86495 -16.47308,6.85368 -19.14652,8.86384 l -4.8608,3.65484 3.08128,2.49507 c 1.69471,1.37229 10.31064,4.1886 19.14652,6.25846 8.83588,2.06986 17.02952,4.12686 18.20809,4.57111 1.19348,0.44987 -4.81917,3.19966 -13.57143,6.20666 -18.82119,6.46638 -29.28572,11.07144 -29.28572,12.8876 0,1.38488 2.45078,2.09473 12.14286,3.51711 3.14286,0.46123 8.125,1.20289 11.07143,1.64813 6.06668,0.91674 7.28293,3.36656 1.67137,3.36656 -2.02717,0 -8.93788,1.84209 -15.35714,4.09354 -14.79401,5.18875 -22.96432,6.24816 -30.2428,3.92145 z"
       style="fill:#262b3a;fill-opacity:0;fill-rule:nonzero;stroke:none;stroke-width:4;stroke-linecap:butt;stroke-miterlimit:4;stroke-dasharray:none;stroke-opacity:1" />
    <path
       transform="translate(0,287.3622)"
       id="path5982"
       d=""
       style="fill:#262b3a;fill-opacity:0;fill-rule:nonzero;stroke:none;stroke-width:4;stroke-linecap:butt;stroke-miterlimit:4;stroke-dasharray:none;stroke-opacity:1" />
    <path
       id="path5984"
       d="m 691.26627,654.42051 c -3.3798,-0.82869 -18.60298,-7.79676 -20.38158,-9.3292 -0.20987,-0.18083 1.87349,-4.0737 4.6297,-8.65083 2.7562,-4.57713 4.62037,-8.69113 4.1426,-9.14223 -0.47777,-0.45108 -1.59685,0.37146 -2.48684,1.82787 -0.88999,1.45643 -3.38885,5.50107 -5.55301,8.98809 l -3.93485,6.34003 -14.63658,-7.51175 c -18.3506,-9.41784 -24.52673,-15.09728 -35.23022,-32.39701 -4.68976,-7.57993 -11.19452,-16.35311 -14.45501,-19.49597 -6.73895,-6.49583 -23.38547,-38.14733 -29.2483,-55.6124 -7.98704,-23.79297 -2.84726,-45.47006 16.5696,-69.88252 9.53152,-11.9838 9.32269,-22.44393 -0.94089,-47.12908 -3.64683,-8.77109 -7.64905,-19.37851 -8.89382,-23.57205 -2.13646,-7.19761 -2.48453,-7.58035 -6.21517,-6.83422 -3.47687,0.69537 -3.8256,0.44882 -2.90089,-2.05092 0.93435,-2.52579 2.5691,-2.8831 14.72072,-3.21755 10.08697,-0.27762 14.6621,-1.02651 17.45637,-2.85739 4.56728,-2.99259 4.84315,-6.73461 0.76734,-10.40817 -1.66067,-1.49678 -6.7998,-7.41563 -11.42028,-13.15301 l -8.40089,-10.43159 11.51141,-11.46509 c 9.96778,-9.92767 20.34445,-16.98976 22.21516,-15.11906 0.31745,0.31745 -2.00203,3.50733 -5.15441,7.08862 -11.07653,12.58361 -5.53727,13.06371 12.68349,1.09932 7.15742,-4.69981 13.01349,-8.25785 13.01349,-7.90676 0,0.3511 -1.90839,3.64758 -4.24087,7.32552 -2.33248,3.67794 -3.89005,7.25479 -3.46127,7.94857 0.72489,1.1729 9.42982,-3.21361 22.47997,-11.32789 3.02066,-1.87817 5.74101,-3.16597 6.04521,-2.86176 0.30421,0.3042 -2.64939,4.34064 -6.56354,8.96986 -6.55042,7.7471 -8.72377,12.10351 -6.04521,12.11742 0.58928,0.003 6.38054,-3.63425 12.86946,-8.08291 6.48892,-4.44867 12.14468,-7.74184 12.56836,-7.31816 0.42368,0.42368 -3.27829,5.71112 -8.2266,11.74986 -4.94832,6.03874 -10.56817,12.92011 -12.48856,15.29194 l -3.49161,4.31241 1.71977,18.09208 c 2.84061,29.88335 3.19085,30.81108 14.32836,37.95336 l 9.50653,6.09636 -0.0264,27.73546 -0.0264,27.73546 -4.6327,10.27655 c -9.53974,21.16165 -7.92267,27.60905 12.47119,49.72345 15.56183,16.87472 18.74315,19.10713 28.85832,20.25065 4.83124,0.54617 11.77603,3.00235 18.88266,6.67828 15.9742,8.26272 23.83355,8.58292 43.75912,1.78284 8.25,-2.81551 17.41072,-5.12388 20.35715,-5.12972 6.45583,-0.0129 7.52124,-3.7892 1.42857,-5.06368 -2.16072,-0.45198 -7.91783,-1.74994 -12.7936,-2.88435 -4.87576,-1.13443 -10.34004,-2.09962 -12.14286,-2.14489 -4.61337,-0.11586 8.71007,-6.00214 25.97036,-11.47374 14.8707,-4.71409 18.34617,-6.32579 16.85547,-7.81649 -0.52606,-0.52605 -10.13811,-3.1524 -21.36014,-5.83633 -11.22202,-2.68392 -20.94506,-5.42125 -21.60675,-6.08294 -1.86084,-1.86084 6.82808,-6.44867 23.2918,-12.29826 17.82185,-6.33212 21.26012,-7.9917 24.90789,-12.02244 2.50039,-2.7629 2.54966,-3.25648 0.527,-5.27916 -1.28096,-1.28094 -8.0853,-3.18795 -15.97594,-4.47747 -13.64097,-2.22925 -13.74466,-2.27698 -13.74466,-6.32603 0,-3.03267 1.94073,-5.997 7.56137,-11.54947 4.15876,-4.10831 9.3578,-8.66704 11.55343,-10.13052 8.99129,-5.99308 -3.36356,-7.16999 -38.88814,-3.70446 -8.91106,0.8693 -16.46293,1.31954 -16.78193,1.00053 -2.03704,-2.03704 3.32487,-19.048 9.56626,-30.34949 12.29955,-22.27122 21.16695,-32.1219 28.9296,-32.13752 3.68198,-0.007 2.54501,3.94962 -7.16993,24.95386 -8.72576,18.86556 -10.55469,25.58874 -7.30066,26.83742 1.41557,0.54321 5.69357,-4.42324 13.6615,-15.86002 14.6363,-21.00822 23.14741,-30.68926 31.05434,-35.32303 5.21755,-3.05768 6.74013,-3.38149 9.345,-1.9874 2.8724,1.53726 3.05369,2.45131 2.35555,11.87678 -0.4387,5.92293 -3.2819,18.5122 -6.77008,29.97692 -3.62072,11.90044 -5.49547,20.28384 -4.71132,21.06798 0.78415,0.78415 5.31972,-3.95448 11.3982,-11.90844 13.04372,-17.06836 22.66747,-27.70598 29.62484,-32.74587 5.60824,-4.06258 11.37794,-5.23325 12.98408,-2.63446 0.47655,0.77106 -4.25794,14.43178 -10.52107,30.35714 -6.26314,15.92537 -11.8295,31.36593 -12.3697,34.31235 -0.93941,5.12393 -0.8121,5.35715 2.92447,5.35715 2.14866,0 8.48806,-2.74692 14.08756,-6.10425 10.98914,-6.58884 18.09136,-10.03293 18.93979,-9.18451 0.59595,0.59596 -21.40909,33.12071 -33.47157,49.47294 l -7.82866,10.61276 0.8841,15.10153 c 0.7828,13.37133 0.54664,15.83806 -2.06123,21.5301 -1.61993,3.53571 -7.09241,17.35714 -12.16109,30.71428 -16.38212,43.17073 -27.01452,60.82133 -41.10247,68.23326 -4.94047,2.59926 -8.71587,3.15857 -23.73224,3.51582 -9.82143,0.23367 -23.80407,0.57857 -31.07253,0.76645 l -13.2154,0.34162 10e-4,-8.21429 c 7e-4,-5.19228 -0.59746,-8.21428 -1.62589,-8.21428 -1.11861,0 -1.38926,2.62168 -0.86617,8.39042 l 0.76083,8.39043 -7.34813,0.88287 c -9.19562,1.10485 -18.91333,0.93202 -24.49097,-0.43558 z"
       style="fill:#800000;fill-opacity:0.75686275;fill-rule:nonzero;stroke:none;stroke-width:4;stroke-linecap:butt;stroke-miterlimit:4;stroke-dasharray:none;stroke-opacity:1" />
    <path
       id="path5986"
       d="m 549.98095,453.10838 c -25.53601,-6.40074 -27.2226,-7.0347 -31.11328,-11.69511 -3.71935,-4.45518 -3.87002,-5.02351 -1.57183,-5.92882 2.0144,-0.79352 71.14065,-12.5778 73.781,-12.5778 0.88395,0 3.28867,7.89482 4.35454,14.2962 1.80563,10.84415 -5.66645,22.92664 -14.07524,22.75989 -2.40657,-0.0477 -16.52541,-3.13218 -31.37519,-6.85436 z"
       style="fill:#ffff00;fill-opacity:0.75686275;fill-rule:nonzero;stroke:none;stroke-width:4;stroke-linecap:butt;stroke-miterlimit:4;stroke-dasharray:none;stroke-opacity:1" />
    <path
       id="path5988"
       d="m 511.89621,430.91593 c 1.91789,-2.0758 6.97057,-5.42214 11.22818,-7.43631 4.2576,-2.01417 15.22413,-10.06796 24.37006,-17.89731 9.14593,-7.82935 19.48697,-16.14466 22.98008,-18.47845 l 6.35113,-4.24327 1.77511,6.80874 c 0.97631,3.74481 4.0296,11.95161 6.78508,18.23732 2.75547,6.28572 4.56295,11.81467 4.01661,12.28657 -0.54633,0.4719 -17.70762,3.56999 -38.13619,6.88463 -20.42857,3.31465 -38.42857,6.3834 -40,6.81945 -2.58407,0.71704 -2.52386,0.43208 0.62994,-2.98137 z"
       style="fill:#ffff00;fill-opacity:0.75686275;fill-rule:nonzero;stroke:none;stroke-width:4;stroke-linecap:butt;stroke-miterlimit:4;stroke-dasharray:none;stroke-opacity:1" />
    <path
       id="path5990"
       d="m 682.06302,649.97181 c -5.06179,-2.35466 -9.47008,-4.548 -9.7962,-4.87413 -0.32612,-0.32611 1.40463,-4.08433 3.84611,-8.3516 4.79867,-8.38719 5.17161,-9.55371 3.05438,-9.55371 -0.76157,0 -3.64644,3.53571 -6.41083,7.85714 -2.76438,4.32143 -5.43861,7.85714 -5.94272,7.85714 -2.72544,0 -27.55117,-14.35018 -32.7704,-18.9425 -3.35737,-2.95408 -9.59636,-10.66837 -13.86443,-17.14286 -4.26807,-6.47448 -11.12276,-15.95035 -15.23265,-21.0575 -13.30581,-16.53442 -28.5821,-47.65601 -32.41453,-66.03644 -3.84865,-18.45823 0.82224,-34.3059 17.12908,-58.11654 7.65967,-11.18436 8.03184,-12.14302 7.98737,-20.5747 -0.0485,-9.19442 -0.658,-11.28981 -12.02628,-41.34374 -6.35618,-16.80361 -7.17336,-18.21429 -10.55129,-18.21429 -2.78193,0 -3.26262,-0.39888 -2.00102,-1.66049 0.91327,-0.91327 7.82183,-2.12649 15.35236,-2.69604 20.28112,-1.53392 23.97704,-6.19939 13.83246,-17.4611 -2.99223,-3.32173 -7.9189,-9.12701 -10.94816,-12.90063 l -5.50775,-6.86112 7.73387,-7.88291 c 8.77092,-8.93994 21.03569,-18.42637 22.25132,-17.21074 0.44646,0.44646 -1.1909,3.24129 -3.63856,6.21073 -9.18869,11.14747 -4.08938,11.9771 12.46453,2.02791 6.41112,-3.85319 11.65659,-6.76585 11.65659,-6.47256 0,0.29329 -1.3651,3.15224 -3.03354,6.35323 -1.66845,3.20099 -2.66442,6.1891 -2.21327,6.64025 0.45115,0.45115 6.31014,-2.14804 13.01997,-5.77599 6.70983,-3.62794 12.54218,-6.59625 12.96077,-6.59625 0.41859,0 -1.8253,3.27201 -4.98643,7.27114 -5.61158,7.09918 -7.21086,11.30029 -4.30181,11.30029 0.79513,0 5.94569,-2.9923 11.44569,-6.64955 5.5,-3.65725 10.26929,-6.38026 10.59843,-6.05112 0.32914,0.32914 -4.53459,6.98683 -10.80828,14.79488 -10.44242,12.99629 -11.34471,14.62496 -10.67319,19.2654 0.40344,2.78792 1.47258,12.14039 2.37587,20.78324 2.15074,20.57859 3.45876,23.42873 14.05439,30.62409 l 8.70425,5.91094 0,27.46144 0,27.46145 -4.98255,11.4139 c -9.11187,20.8732 -6.75604,28.05347 17.70327,53.95745 9.65893,10.22945 14.62661,13.35569 24.52794,15.43585 4.26324,0.89565 12.57277,3.8739 18.46563,6.61834 15.59256,7.26178 24.99551,7.6981 44.28571,2.05493 8.25,-2.41347 17.41072,-4.80847 20.35715,-5.32225 3.23703,-0.56442 5.35714,-1.73698 5.35714,-2.96282 0,-2.5526 -1.14034,-2.9734 -16.46714,-6.07639 -9.18159,-1.85887 -11.80466,-2.847 -9.81687,-3.69811 1.49191,-0.6388 11.06972,-4.15016 21.28401,-7.803 11.5149,-4.11798 18.57143,-7.38366 18.57143,-8.59463 0,-1.31685 -6.61374,-3.64237 -20.30262,-7.1388 -11.16644,-2.85215 -20.7125,-5.5956 -21.21348,-6.09657 -1.26633,-1.26635 10.24116,-6.76776 27.56207,-13.17669 14.547,-5.38254 21.81117,-10.12226 21.81117,-14.23129 0,-2.31037 -9.35133,-5.63711 -20.57821,-7.32068 -3.53969,-0.5308 -7.51046,-1.75092 -8.82395,-2.71137 -3.53987,-2.58842 -0.87162,-6.90075 11.26793,-18.21086 l 10.24815,-9.54794 -4.27125,-1.67665 c -3.23987,-1.27179 -9.44557,-1.29248 -25.69981,-0.0857 -31.92542,2.3703 -29.8108,2.6825 -28.87912,-4.26374 1.46952,-10.95603 17.86232,-41.03764 26.93428,-49.42574 1.85537,-1.71552 5.14127,-3.78889 7.30198,-4.6075 5.71604,-2.16557 5.26944,0.0539 -4.64286,23.07391 -8.197,19.03643 -10.00255,25.74246 -7.36921,27.36996 1.74343,1.0775 8.23517,-6.34377 20.6828,-23.64432 15.16593,-21.07862 28.3523,-32.45788 33.74807,-29.1231 3.0444,1.88153 1.40913,16.69942 -4.27171,38.70787 -3.17982,12.31911 -5.47803,22.70183 -5.10715,23.07272 1.46248,1.46247 5.32282,-2.36354 17.63382,-17.47702 7.0547,-8.66063 16.11977,-18.70733 20.14461,-22.326 6.99443,-6.2886 13.78536,-9.30218 15.32999,-6.80293 0.39766,0.64343 -2.8923,11.00364 -7.31103,23.0227 -17.43536,47.42473 -17.29917,46.85283 -11.157,46.85283 2.06347,0 9.6966,-3.21429 16.96253,-7.14286 7.26593,-3.92857 13.63294,-7.14286 14.14891,-7.14286 1.1027,0 -8.71471,14.8086 -26.9917,40.71429 l -13.10251,18.57143 0.60914,15 0.60914,15 -12.42482,31.42857 c -15.0673,38.11271 -23.16598,54.20144 -32.3322,64.23074 -10.05265,10.9992 -12.6891,11.7095 -48.01596,12.93622 l -30.35714,1.05415 0,-8.03913 c 0,-10.5555 -2.59085,-10.41111 -3.143,0.17516 l -0.42843,8.21429 -15,0.31603 c -14.00523,0.29505 -15.61034,0.0321 -24.20325,-3.96516 z"
       style="fill:#877442;fill-opacity:0.51572331;fill-rule:nonzero;stroke:none;stroke-width:4;stroke-linecap:butt;stroke-miterlimit:4;stroke-dasharray:none;stroke-opacity:1" />
    <path
       id="path5992"
       d="m 742.69484,559.49307 c -3.14286,-1.00468 -9.29588,-3.85847 -13.67339,-6.34176 -4.46571,-2.53333 -11.04948,-4.88384 -15,-5.35525 -3.87249,-0.46209 -8.71071,-1.4672 -10.75159,-2.23357 -4.39067,-1.64874 -31.26165,-29.98169 -34.65133,-36.53661 -3.53909,-6.84384 -2.87509,-13.74393 2.65192,-27.55824 2.75229,-6.87915 5.41274,-16.4165 5.9121,-21.19411 l 0.90793,-8.68656 6.58789,1.01698 c 10.79689,1.66674 50.34465,1.16171 55.87361,-0.7135 5.77355,-1.95817 55.48138,-6.54823 63.55712,-5.86892 l 5.42748,0.45655 -7.51278,4.8508 c -7.96566,5.14322 -15.75753,15.57336 -15.75753,21.09291 0,4.246 2.65852,5.4617 16.57339,7.57873 13.61485,2.07137 16.14215,3.20552 13.70011,6.14801 -2.00307,2.41356 -7.54286,4.87415 -26.70207,11.86017 -7.85715,2.86495 -16.47308,6.85368 -19.14652,8.86384 l -4.8608,3.65484 3.08128,2.49507 c 1.69471,1.37229 10.31064,4.1886 19.14652,6.25846 8.83588,2.06986 17.02952,4.12686 18.20809,4.57111 1.19348,0.44987 -4.81917,3.19966 -13.57143,6.20666 -18.82119,6.46638 -29.28572,11.07144 -29.28572,12.8876 0,1.38488 2.45078,2.09473 12.14286,3.51711 3.14286,0.46123 8.125,1.20289 11.07143,1.64813 6.06668,0.91674 7.28293,3.36656 1.67137,3.36656 -2.02717,0 -8.93788,1.84209 -15.35714,4.09354 -14.79401,5.18875 -22.96432,6.24816 -30.2428,3.92145 z"
       style="fill:#6c2e2a;fill-opacity:0.51572331;fill-rule:nonzero;stroke:none;stroke-width:4;stroke-linecap:butt;stroke-miterlimit:4;stroke-dasharray:none;stroke-opacity:1" />
    <ellipse
       ry="43.899895"
       rx="27.471327"
       cy="697.36218"
       cx="940"
       id="path5994"
       style="fill:#6c2e2a;fill-opacity:0.51572331;fill-rule:nonzero;stroke:#000000;stroke-width:3.34306192;stroke-linecap:butt;stroke-miterlimit:4;stroke-dasharray:none;stroke-opacity:1" />
    <path
       id="path5996"
       d="m 432.85714,532.3622 80,-77.14286"
       style="fill:none;fill-rule:evenodd;stroke:#000000;stroke-width:1px;stroke-linecap:butt;stroke-linejoin:miter;stroke-opacity:1;marker-end:url(#Arrow1Lend)" />
    <path
       style="fill:none;fill-rule:evenodd;stroke:#000000;stroke-width:0.73275542px;stroke-linecap:butt;stroke-linejoin:miter;stroke-opacity:1;marker-end:url(#marker6120)"
       d="m 844.20753,595.63352 56.15769,59.00578"
       id="path6118" />
  </g>
</svg>
